<?xml version="1.0" standalone="no"?>
<!DOCTYPE svg PUBLIC "-//W3C//DTD SVG 20010904//EN"
 "http://www.w3.org/TR/2001/REC-SVG-20010904/DTD/svg10.dtd">
<svg version="1.0" xmlns="http://www.w3.org/2000/svg"
 width="512.000000pt" height="512.000000pt" viewBox="0 0 512.000000 512.000000"
 preserveAspectRatio="xMidYMid meet">

<g transform="translate(0.000000,512.000000) scale(0.100000,-0.100000)"
fill="#000000" stroke="none">
<path d="M1320 5107 c-49 -16 -133 -102 -148 -153 -8 -27 -12 -119 -12 -268
l0 -226 -138 0 c-173 0 -226 -14 -287 -75 -61 -61 -75 -114 -75 -287 l0 -138
-226 0 c-149 0 -241 -4 -268 -12 -55 -16 -138 -99 -154 -154 -26 -89 -9 -163
55 -234 67 -74 93 -80 365 -80 l228 0 0 -135 0 -135 -242 0 c-233 -1 -245 -1
-288 -24 -154 -78 -172 -296 -33 -402 60 -46 115 -54 353 -54 l210 0 0 -170 0
-170 -218 0 c-244 0 -291 -8 -355 -61 -130 -107 -107 -318 43 -394 49 -25 53
-25 290 -25 l240 0 0 -135 0 -135 -227 0 c-133 0 -245 -5 -268 -11 -83 -23
-165 -137 -165 -229 0 -92 80 -202 166 -228 27 -8 119 -12 268 -12 l226 0 0
-138 c0 -173 14 -226 75 -287 61 -61 114 -75 287 -75 l138 0 0 -226 c0 -149 4
-241 12 -268 16 -55 99 -138 154 -154 91 -27 177 -5 242 61 66 68 72 96 72
358 l0 229 135 0 135 0 0 -242 c1 -233 1 -245 24 -288 78 -154 296 -172 402
-33 46 60 54 115 54 353 l0 210 170 0 170 0 0 -218 c0 -244 8 -291 61 -355
107 -130 318 -107 394 43 25 49 25 53 25 290 l0 240 135 0 135 0 0 -227 c0
-133 5 -245 11 -268 23 -83 137 -165 229 -165 92 0 202 80 228 166 8 27 12
119 12 268 l0 226 138 0 c173 0 226 14 287 75 61 61 75 114 75 287 l0 138 228
0 c272 0 298 6 365 80 64 71 81 146 55 234 -17 56 -100 141 -153 155 -23 6
-135 11 -267 11 l-228 0 0 135 0 135 240 0 c237 0 241 0 290 25 150 76 173
287 43 394 -64 53 -111 61 -355 61 l-218 0 0 170 0 170 218 0 c244 0 291 8
355 61 129 107 106 319 -43 395 -43 23 -55 23 -287 24 l-243 0 0 135 0 135
228 0 c272 0 298 6 365 80 90 100 90 220 0 320 -67 74 -93 80 -365 80 l-228 0
0 138 c0 173 -14 226 -75 287 -61 61 -114 75 -287 75 l-138 0 0 226 c0 146 -4
241 -12 266 -17 59 -88 133 -145 152 -96 33 -174 15 -250 -59 -34 -33 -55 -64
-62 -90 -6 -23 -11 -135 -11 -267 l0 -228 -135 0 -135 0 0 243 c-1 232 -1 244
-24 287 -76 149 -288 172 -395 43 -53 -64 -61 -111 -61 -355 l0 -218 -170 0
-170 0 0 210 c0 238 -8 293 -54 353 -106 139 -324 121 -402 -33 -23 -43 -23
-55 -24 -287 l0 -243 -135 0 -135 0 0 228 c0 264 -6 294 -73 360 -67 65 -158
87 -247 59z m148 -173 c17 -20 22 -37 22 -85 l0 -59 -90 0 -90 0 0 58 c0 62
17 97 54 112 32 14 79 3 104 -26z m721 21 c36 -18 41 -32 41 -106 l0 -59 -85
0 -85 0 0 64 c0 59 2 66 31 90 35 30 58 32 98 11z m840 -11 c29 -24 31 -31 31
-90 l0 -64 -90 0 -90 0 0 44 c0 60 18 104 49 121 39 21 66 18 100 -11z m755
-4 c15 -14 21 -37 24 -85 l4 -65 -91 0 -91 0 0 58 c0 62 17 97 54 112 29 13
77 3 100 -20z m-2294 -390 l0 -90 -90 0 -90 0 0 90 0 90 90 0 90 0 0 -90z
m740 0 l0 -90 -85 0 -85 0 0 90 0 90 85 0 85 0 0 -90z m830 0 l0 -90 -90 0
-90 0 0 83 c0 46 3 87 7 90 3 4 44 7 90 7 l83 0 0 -90z m750 0 l0 -90 -90 0
-90 0 0 90 0 90 90 0 90 0 0 -90z m374 -249 c131 -11 116 211 116 -1743 l0
-1689 -23 -23 c-22 -22 -36 -24 -148 -30 -68 -4 -829 -6 -1691 -4 l-1568 3
-27 28 -28 27 0 1689 0 1689 24 26 c13 14 33 27 45 29 37 7 3218 6 3300 -2z
m-3854 -581 l0 -90 -59 0 c-80 0 -116 28 -116 90 0 62 36 90 116 90 l59 0 0
-90z m330 0 l0 -90 -90 0 -90 0 0 90 0 90 90 0 90 0 0 -90z m3980 0 l0 -90
-90 0 -90 0 0 90 0 90 90 0 90 0 0 -90z m297 66 c22 -19 28 -32 28 -66 0 -62
-36 -90 -116 -90 l-59 0 0 90 0 90 59 0 c49 0 65 -4 88 -24z m-4607 -811 l0
-85 -59 0 c-74 0 -88 5 -106 41 -21 40 -19 63 11 98 24 29 31 31 90 31 l64 0
0 -85z m330 0 l0 -85 -90 0 -90 0 0 85 0 85 90 0 90 0 0 -85z m3980 0 l0 -85
-90 0 -90 0 0 85 0 85 90 0 90 0 0 -85z m304 54 c30 -35 32 -58 11 -98 -18
-36 -32 -41 -106 -41 l-59 0 0 85 0 85 64 0 c59 0 66 -2 90 -31z m-4614 -879
l0 -90 -64 0 c-59 0 -66 2 -90 31 -29 34 -32 55 -14 95 16 34 59 53 121 54
l47 0 0 -90z m330 0 l0 -90 -90 0 -90 0 0 83 c0 46 3 87 7 90 3 4 44 7 90 7
l83 0 0 -90z m3978 -2 l3 -88 -91 0 -90 0 0 90 0 91 88 -3 87 -3 3 -87z m264
81 c26 -7 43 -19 53 -39 21 -41 19 -64 -11 -99 -24 -29 -31 -31 -90 -31 l-64
0 0 90 0 90 38 0 c20 0 54 -5 74 -11z m-4572 -830 l0 -91 -65 4 c-82 5 -110
28 -110 89 0 61 37 89 116 89 l59 0 0 -91z m330 1 l0 -90 -90 0 -90 0 0 90 0
90 90 0 90 0 0 -90z m3980 0 l0 -90 -90 0 -90 0 0 90 0 90 90 0 90 0 0 -90z
m297 66 c22 -19 28 -32 28 -65 0 -61 -28 -84 -110 -89 l-65 -4 0 91 0 91 59 0
c49 0 65 -4 88 -24z m-3447 -896 l0 -90 -90 0 -90 0 0 90 0 90 90 0 90 0 0
-90z m740 0 l0 -90 -85 0 -85 0 0 90 0 90 85 0 85 0 0 -90z m830 0 l0 -91 -87
3 -88 3 -3 88 -3 87 91 0 90 0 0 -90z m750 0 l0 -90 -90 0 -90 0 0 90 0 90 90
0 90 0 0 -90z m-2320 -299 c0 -80 -28 -116 -90 -116 -62 0 -90 36 -90 116 l0
59 90 0 90 0 0 -59z m740 0 c0 -74 -5 -88 -41 -106 -40 -21 -63 -19 -98 11
-29 24 -31 31 -31 90 l0 64 85 0 85 0 0 -59z m830 -5 c0 -59 -2 -66 -31 -90
-35 -30 -58 -32 -98 -11 -33 17 -51 59 -51 121 l0 44 90 0 90 0 0 -64z m748
-1 c-5 -82 -28 -110 -89 -110 -61 0 -89 37 -89 116 l0 59 91 0 91 0 -4 -65z"/>
<path d="M3887 4196 c-59 -22 -103 -62 -132 -121 -24 -47 -27 -64 -23 -124 4
-82 35 -135 107 -186 39 -27 50 -30 125 -30 74 0 87 3 132 30 66 42 106 108
112 186 6 81 -16 137 -78 192 -71 64 -157 83 -243 53z m122 -151 c56 -29 63
-106 14 -145 -79 -62 -184 37 -127 118 28 40 69 50 113 27z"/>
<path d="M1182 3937 l-22 -23 0 -1355 0 -1356 23 -21 c23 -22 27 -22 383 -22
l361 0 20 23 c12 12 53 86 92 165 l71 142 450 0 450 0 76 -152 c42 -84 84
-158 93 -165 12 -9 105 -12 377 -13 l361 0 21 23 22 23 0 1191 c0 1176 0 1190
-20 1208 -11 10 -45 22 -76 27 -130 20 -212 102 -232 232 -17 106 67 96 -822
96 l-777 0 -21 -23 c-31 -33 -29 -80 4 -106 26 -21 33 -21 750 -21 683 0 724
-1 724 -17 0 -37 61 -145 110 -193 48 -49 156 -110 193 -110 16 0 17 -59 17
-1090 l0 -1090 -270 0 -270 0 -71 143 c-39 78 -80 152 -92 165 l-20 22 -527 0
-527 0 -20 -22 c-12 -13 -53 -87 -92 -165 l-71 -143 -270 0 -270 0 0 1250 0
1250 228 0 c224 0 229 0 249 23 11 12 23 30 26 40 8 22 -16 72 -38 81 -9 3
-141 6 -294 6 -277 0 -278 0 -299 -23z"/>
<path d="M1845 2961 c-46 -12 -87 -36 -122 -73 -59 -61 -63 -84 -63 -328 0
-244 4 -267 63 -328 100 -104 268 -101 357 6 31 37 60 115 60 159 0 31 -42 73
-73 73 -37 0 -77 -36 -77 -71 0 -18 -11 -41 -29 -61 -38 -42 -94 -44 -128 -3
-22 25 -23 32 -23 224 0 182 2 200 20 223 52 67 160 21 160 -67 0 -28 43 -65
77 -65 31 0 73 42 73 73 0 44 -29 122 -60 159 -51 62 -160 98 -235 79z"/>
<path d="M2353 2946 l-28 -24 0 -361 c0 -358 0 -361 22 -382 27 -27 75 -29
103 -4 17 16 20 33 22 164 l3 146 85 5 c63 4 94 11 120 27 109 67 149 195 96
308 -48 105 -131 145 -297 145 -89 0 -100 -2 -126 -24z m247 -144 c56 -28 66
-96 20 -142 -16 -16 -34 -20 -85 -20 l-65 0 0 83 c0 46 3 87 7 90 13 13 89 7
123 -11z"/>
<path d="M3024 2959 c-40 -20 -44 -48 -44 -323 0 -202 3 -274 15 -312 52 -176
273 -227 402 -92 61 63 63 77 63 401 0 323 1 316 -62 332 -22 6 -33 1 -58 -23
l-30 -30 0 -272 c0 -175 -4 -278 -11 -292 -6 -11 -26 -26 -45 -34 -31 -13 -39
-13 -68 1 -18 9 -38 27 -45 41 -7 17 -11 114 -11 293 0 241 -2 271 -17 289
-22 26 -61 35 -89 21z"/>
</g>
</svg>
